<svg xmlns="http://www.w3.org/2000/svg" xml:space="preserve" id="Layer_1" x="0" y="0" style="enable-background:new 0 0 180 45.1" version="1.1" viewBox="0 0 180 45.1"><style>.st0{fill-rule:evenodd;clip-rule:evenodd}.st0,.st1{fill:#fff}</style><path d="M0 25.5C0 18 4.6 13.3 12.5 13.3S25 18 25 25.5c0 7.5-4.6 12.2-12.5 12.2-8 0-12.5-4.8-12.5-12.2zm12.5 8c2.3 0 4.3-.8 5.6-2.2s2.1-3.5 2.1-5.9c0-2.4-.7-4.5-2.1-5.9-1.4-1.5-3.3-2.2-5.7-2.2-2.3 0-4.3.8-5.6 2.2-1.3 1.4-2.1 3.5-2.1 5.9 0 2.5.7 4.5 2.1 5.9 1.4 1.5 3.3 2.2 5.7 2.2z" class="st0"/><path d="M41.2 37.2V26.8c0-2.7-1.4-4.3-3.8-4.3s-3.8 1.7-3.8 4.3v10.5h-4.5v-18h4.5v2.6c1.3-1.5 3-2.9 5.9-2.9 3.8 0 6.1 2.6 6.1 6.7v11.7l-4.4-.2zm18.9-.6c-.8.5-2.1.9-3.8.9-3.1 0-5.2-1.3-5.2-5.4v-9.4h-2.2v-3.5h2.2v-4.6h4.5v4.6H60v3.5h-4.4v8.5c0 1.6.8 2.4 2.3 2.4.8 0 1.8-.2 2.3-.5v3.5z" class="st1"/><path d="M64.4 20.3c1.9-.8 3.8-1.3 6.7-1.3 5.6 0 8 2.9 8 7.8v10.5h-4.2v-1.7c-1.4 1.1-3.3 2-6.1 2-3.3 0-6-1.9-6-5.4v-.1c0-4.1 3-5.9 7.1-5.9 2 0 3.7.3 5.1.7v-.4c0-2.6-1.7-4-4.7-4-2 0-3.8.5-5.1 1l-.8-3.2zm6 14.3c2.6 0 4.5-1.5 4.5-3.7v-1.3l-.4-.2c-.9-.4-2.2-.6-3.4-.6-2.5 0-4 1.2-4 3v.2c0 1.6 1.3 2.6 3.3 2.6z" class="st0"/><path d="M83.6 37.2v-18H88v3.6c1.2-2.5 2.7-4.1 6-4v3.9h-.1c-1.6 0-3 .5-4 1.4-1.3 1.2-2 3.1-2 5.6v7.5h-4.3z" class="st1"/><path d="M102.4 16.5v-3.9h-4.7v3.9h4.7zm-4.6 2.7h4.5v18h-4.5v-18zm8.5 9.1c0-5.8 3.7-9.4 9.8-9.4s9.7 3.6 9.8 9.4c0 5.8-3.7 9.4-9.8 9.4-6.2 0-9.8-3.7-9.8-9.4zm9.8 5.6c1.6 0 3-.5 3.9-1.5.9-1 1.4-2.4 1.4-4.2 0-1.7-.5-3.2-1.4-4.2-1-1-2.3-1.6-3.9-1.6s-3 .5-3.9 1.5c-.9 1-1.4 2.4-1.4 4.2 0 1.7.5 3.2 1.4 4.2.9 1.1 2.2 1.6 3.9 1.6z" class="st0"/><path d="M157.5 0C142.2 0 135 7.2 135 22.6c0 15.3 7.2 22.6 22.5 22.6S180 37.9 180 22.6C180 7.2 172.8 0 157.5 0z" class="st1"/><path d="M157.5 12.9c4.6-3.1 10.4-3.5 15.4-1.1l.2.1v.2c-.2 2.3-.9 4.6-2 6.6-1.4 2.4-3.3 4.3-5.7 5.7-.1.1-.2.1-.4.2l-.6.3c.4 5.6-2.1 10.8-6.7 13.9l-.2.1-.1-.1c-1.9-1.3-3.6-3.1-4.7-5.1-1.4-2.4-2.1-5.1-2.1-7.8 0-.3 0-.7.1-1-5-2.5-8.2-7.2-8.6-12.8v-.2l.2-.1c2.1-1 4.4-1.6 6.7-1.6 2.7 0 5.4.7 7.7 2.1.2.3.5.4.8.6zm5.8 8.4c1.7-1 3.2-2.4 4.3-4.2.5-.9.9-1.8 1.2-2.6-2.8-.7-5.7-.2-8.2 1.2.2.3.4.6.5 1.1.2.4.2 1 .1 1.5-.1.2-.1.4-.2.6-.5.9-1.6 1.5-2.9 1.9.5-1.6-.3-2.9-1.3-3.8-.5-.5-1.1-.8-1.7-1.2-1.7-1-3.7-1.6-5.8-1.6-1 0-2 .1-2.9.4.9 2.8 2.6 5 5.1 6.6.2-.4.4-.6.7-1 .3-.4.8-.7 1.2-.8.2-.1.4-.1.6-.1 1 0 2.1.6 3.1 1.5-1.6.4-2.4 1.7-2.6 3-.1.7-.2 1.4-.2 2 0 2 .5 4 1.5 5.8.5.9 1.1 1.7 1.8 2.3 2-2.2 3-4.8 3.1-7.8-.4.1-.7 0-1.2-.1-.4-.1-.9-.4-1.3-.7-.1-.2-.3-.3-.4-.5-.5-.9-.5-2.1-.2-3.4 1.1 1.2 2.7 1.2 3.9.8.6-.3 1.2-.5 1.8-.9z" style="fill-rule:evenodd;clip-rule:evenodd"/></svg>