<?xml version="1.0" encoding="utf-8"?>
<!-- Generator: Adobe Illustrator 24.0.0, SVG Export Plug-In . SVG Version: 6.00 Build 0)  -->
<svg version="1.1" id="Layer_1" xmlns="http://www.w3.org/2000/svg" xmlns:xlink="http://www.w3.org/1999/xlink" x="0px" y="0px"
	 viewBox="0 0 917 112" style="enable-background:new 0 0 917 112;" xml:space="preserve">
<style type="text/css">
	.st0{display:none;}
	.st1{display:inline;fill:#58B7DD;}
	.st2{fill:#FFFFFF;}
</style>
<g id="Layer_2_1_" class="st0">
	<rect x="611.6" y="1212.3" class="st1" width="941.3" height="182.9"/>
</g>
<g>
	<path class="st2" d="M1.3,34.4l58.4,69.1c8.8,10.2,17.2,10.2,25.3,0l56.2-69.4C103.4-10.1,42.9-10.7,1.3,34.4z M81.4,100.9
		c-5.8,6.8-11.6,6.8-17.4,0L7.5,34.3C49.2-4.3,99.7-4.3,135,34.3L81.4,100.9z"/>
	<path class="st2" d="M56,82.3c0,2,8.1,9.8,16.1,14.9c11.8-7.9,16.1-12.8,16.2-14.9V61.7H56V82.3L56,82.3z M87.2,82.2
		c0,2.2-7.5,8.9-15,13.7c-7-4.7-15-11.8-15-13.5v-8.8h30.1L87.2,82.2z M70.5,72.1H57.1V69h13.4V72.1z M73.9,72.1V69h13.2v3.1H73.9z
		 M87.2,65.7H73.9v-2.8h13.2L87.2,65.7L87.2,65.7z M70.5,62.9v2.8H57.1v-2.8C57.1,62.9,70.5,62.9,70.5,62.9z"/>
	<path class="st2" d="M60,84l1,0.5c0.1,0,0.1,0.1,0.1,0.2l-0.4,0.6l2.6-0.5c0.1,0,0.1,0,0.1,0.1l0.2,0.6l1.4-1.8l6.9,4.2v2.6
		c0,0.4-0.1,0.7,0.3,0.7s0.5-0.4,0.5-0.8v-2.6l6.9-4.1l1.4,1.9l0.2-0.6c0-0.1,0.1-0.1,0.1-0.1l2.6,0.5l-0.4-0.6c0-0.1,0-0.2,0.1-0.2
		l1-0.5l-1-0.5c-0.1-0.1-0.1-0.1-0.1-0.2l0.6-0.5L82,82.8v-0.1l2.4-1.5l-1.1-0.4c-0.1-0.1-0.1-0.1-0.1-0.1l0.8-1.4L82.5,80
		c-0.1,0-0.1,0-0.1-0.1l-0.3-1.1l-1.7,2.3c0,0.1,0,0.1-0.1,0l0.1-2.1l-0.6,0.6c-0.1,0-0.1,0-0.2-0.1l-0.5-1l-0.5,1
		c0,0.1-0.1,0.1-0.2,0.1l-0.6-0.4l0.3,2.6c0,0.1,0,0.1-0.1,0.1L77.3,82l1.5,1.3l-6.2,3.9c-0.3,0.2-0.3-0.2-0.3-0.5v-6.1l2.1,0.3
		l-0.3-0.5c-0.1-0.1,0-0.1,0-0.1l2.2-1.5l-0.7-0.2c-0.1-0.1-0.1-0.1-0.1-0.2l0.4-1l-1.1,0.3c-0.1,0-0.1,0-0.2-0.1v-0.9l-1.5,1.4
		c0,0-0.1,0,0-0.1l0.6-2.8l-1,0.5c-0.1,0-0.1,0-0.2,0L72,74.2l-0.5,1.5c0,0-0.1,0-0.2,0l-1-0.5l0.6,2.8c0,0.1,0,0.1,0,0.1l-1.5-1.4
		v0.9c0,0.1-0.1,0.1-0.2,0.1l-1.1-0.3l0.3,1c0,0.1,0,0.1-0.1,0.2l-0.7,0.2l2.1,1.5c0.1,0,0.1,0.1,0,0.1l-0.4,0.5l2.1-0.2v6.1
		c0,0.3,0,0.4-0.3,0.5L65,83.5l1.6-1.3l-0.7-0.1c-0.1,0-0.1,0-0.1-0.1l0.3-2.6l-0.6,0.4c-0.1,0-0.2,0-0.2-0.1l-0.5-1l-0.5,1
		c-0.1,0.1-0.1,0.1-0.2,0.1l-0.6-0.6l0.1,2.1h-0.1L61.8,79l-0.4,1.1c0,0.1-0.1,0.1-0.1,0.1l-1.5-0.7l0.8,1.4c0,0.1,0,0.1-0.1,0.1
		l-1.1,0.4l2.4,1.5c0.1,0,0.1,0,0.1,0.1l-2.1,0.1l0.7,0.5c0,0.1,0,0.1-0.1,0.2L60,84z"/>
	<path class="st2" d="M79,40.7c-1.1-1-2.8-1.5-5-1.5h-0.9h-7.7v18.9h4.8v-6.7h2.9h1c2.1,0,3.8-0.5,4.9-1.6s1.7-2.6,1.7-4.6
		C80.7,43.2,80.2,41.8,79,40.7z M75.4,47c-0.4,0.4-1.1,0.6-1.9,0.6h-0.3h-2.9v-4.5h2.9h0.3c0.9,0,1.5,0.2,2,0.6
		c0.4,0.4,0.7,0.9,0.7,1.7C76,46.1,75.8,46.6,75.4,47z"/>
	<path class="st2" d="M101,40.7c-1.2-1-2.8-1.5-5-1.5h-0.9h-7.7v18.9h4.9v-6.7h2.9h1.1c2.1,0,3.7-0.5,4.9-1.6
		c1.1-1.1,1.7-2.6,1.7-4.6C102.7,43.2,102.1,41.8,101,40.7z M97.3,47c-0.4,0.4-1.1,0.6-1.9,0.6h-0.3h-2.9v-4.5h2.9h0.3
		c0.9,0,1.5,0.2,2,0.6c0.4,0.4,0.6,0.9,0.6,1.7C97.9,46.1,97.7,46.6,97.3,47z"/>
	<path class="st2" d="M55.8,41.4c-1.7-1.8-4-2.7-6.9-2.7s-5.2,0.9-6.9,2.7s-2.6,4.2-2.6,7.3s0.9,5.5,2.6,7.3s4,2.6,6.9,2.6
		s5.2-0.9,6.9-2.7s2.6-4.2,2.6-7.3C58.4,45.6,57.5,43.2,55.8,41.4z M52.2,53.1c-0.8,1-1.9,1.5-3.4,1.6l0,0c-1.5,0-2.6-0.5-3.4-1.6
		c-0.8-1-1.2-2.5-1.2-4.4s0.4-3.4,1.2-4.4s1.9-1.5,3.4-1.5l0,0c1.5,0,2.6,0.5,3.4,1.5s1.2,2.5,1.2,4.4S53,52.1,52.2,53.1z"/>
	<path class="st2" d="M58.7,56.7c0,0.8,0.7,1.5,1.5,1.5s1.5-0.7,1.5-1.5s-0.7-1.5-1.5-1.5S58.7,55.9,58.7,56.7z"/>
	<path class="st2" d="M81.4,58.2c0.8,0,1.5-0.7,1.5-1.5s-0.7-1.5-1.5-1.5s-1.5,0.7-1.5,1.5S80.6,58.2,81.4,58.2z"/>
	<path class="st2" d="M103.2,55.2c-0.8,0-1.5,0.7-1.5,1.5s0.7,1.5,1.5,1.5s1.5-0.7,1.5-1.5S104,55.2,103.2,55.2z"/>
	<path class="st2" d="M56.9,22.5c0.5,0,0.8-0.4,0.8-0.8s-0.4-0.8-0.8-0.8s-0.8,0.4-0.8,0.8C56.1,22.2,56.5,22.5,56.9,22.5z"/>
	<path class="st2" d="M84.8,21.8c0,0.4,0.4,0.8,0.8,0.8s0.8-0.4,0.8-0.8c0-0.5-0.4-0.8-0.8-0.8C85.2,20.9,84.8,21.3,84.8,21.8z"/>
	<path class="st2" d="M57.8,20.6c0.5,0,0.8-0.4,0.8-0.8c0-0.5-0.4-0.8-0.8-0.8S57,19.4,57,19.8C57,20.3,57.4,20.6,57.8,20.6z"/>
	<path class="st2" d="M83.9,19.9c0,0.5,0.4,0.8,0.8,0.8c0.5,0,0.8-0.4,0.8-0.8s-0.4-0.8-0.8-0.8S83.9,19.4,83.9,19.9z"/>
	<path class="st2" d="M59.1,18.9c0.4,0,0.8-0.4,0.8-0.8s-0.4-0.8-0.8-0.8c-0.5,0-0.8,0.4-0.8,0.8C58.2,18.5,58.6,18.9,59.1,18.9z"/>
	<path class="st2" d="M83.5,18.9c0.5,0,0.8-0.4,0.8-0.8c0-0.5-0.3-0.8-0.8-0.8s-0.8,0.4-0.8,0.8C82.7,18.6,83,18.9,83.5,18.9z"/>
	<path class="st2" d="M60.9,17.7c0.4,0,0.8-0.4,0.8-0.8c0-0.5-0.4-0.8-0.8-0.8c-0.5,0-0.8,0.4-0.8,0.8S60.4,17.7,60.9,17.7z"/>
	<path class="st2" d="M81.7,17.7c0.4,0,0.8-0.4,0.8-0.8c0-0.5-0.4-0.8-0.8-0.8c-0.5,0-0.8,0.3-0.8,0.8S81.2,17.7,81.7,17.7z"/>
	<path class="st2" d="M62.8,16.9c0.4,0,0.8-0.3,0.8-0.8c0-0.4-0.4-0.8-0.8-0.8c-0.5,0-0.8,0.4-0.8,0.8C62,16.5,62.4,16.9,62.8,16.9z
		"/>
	<path class="st2" d="M79.7,16.9c0.5,0,0.8-0.4,0.8-0.8s-0.3-0.8-0.8-0.8c-0.4,0-0.8,0.4-0.8,0.8C78.9,16.5,79.3,16.9,79.7,16.9z"/>
	<path class="st2" d="M65.1,16.7c0.4,0,0.8-0.4,0.8-0.8s-0.4-0.8-0.8-0.8c-0.5,0-0.8,0.4-0.8,0.8S64.7,16.7,65.1,16.7z"/>
	<path class="st2" d="M77.4,16.7c0.5,0,0.8-0.4,0.8-0.8s-0.3-0.8-0.8-0.8s-0.8,0.4-0.8,0.8C76.6,16.4,77,16.7,77.4,16.7z"/>
	<path class="st2" d="M67.4,17c0.4,0,0.8-0.4,0.8-0.8s-0.4-0.8-0.8-0.8s-0.8,0.4-0.8,0.8C66.6,16.6,66.9,17,67.4,17z"/>
	<path class="st2" d="M75.2,17c0.4,0,0.8-0.4,0.8-0.8c0-0.5-0.4-0.8-0.8-0.8c-0.5,0-0.8,0.4-0.8,0.8C74.4,16.7,74.7,17,75.2,17z"/>
	<path class="st2" d="M71.2,18.5c0.9,0,1.6-0.7,1.6-1.6s-0.7-1.6-1.6-1.6s-1.6,0.7-1.6,1.6C69.7,17.8,70.4,18.5,71.2,18.5z"/>
	<path class="st2" d="M70.3,14.8h2.1c-0.4-0.6-0.6-1.2-0.8-1.9c0.7,0.1,1.2,0.4,1.8,0.9v-2.2c-0.6,0.4-1.2,0.7-1.8,0.9
		c0.2-0.7,0.4-1.3,0.8-1.9h-2.1c0.4,0.7,0.7,1.3,0.8,1.9c-0.7-0.2-1.3-0.5-1.8-1v2.3c0.5-0.5,1.2-0.8,1.8-0.9
		C70.9,13.5,70.6,14.2,70.3,14.8z"/>
	<path class="st2" d="M69.8,19.3c-5.9-4-12.2-0.2-11.5,7.4c0.1,1.3,2.1,3.5,3.8,5.5c5.9-1.9,11.8-2.1,17.9,0c1.4-1.9,4-4.4,4.1-5.7
		c0.5-6.7-4.1-11.5-11.6-7.3C71.5,19.7,70.6,19.7,69.8,19.3z M70.2,25.9c-0.6,3.5-5.9,0.2-1.3-1.9c-0.8-0.7-1.6-1-2.4-0.3
		c-0.3-0.7-0.8-1.2-1.2-1.6c-0.6,0.4-1.1,0.7-1.3,1.7c-0.9-0.6-1.7-0.9-2.6,0.6c2.5,0,3.1,2.4,1.1,3.1c-2.6,0.4-3-1.1-2.9-3.4
		c1.3-6.7,9.6-7.1,10.8-0.3h-1v2.1L70.2,25.9z M82.4,24.1c0.1,2.3-0.3,3.8-2.9,3.4c-2-0.7-1.4-3.1,1.1-3.1c-0.9-1.5-1.7-1.3-2.6-0.6
		c-0.2-0.9-0.8-1.3-1.3-1.7c-0.5,0.3-0.9,0.8-1.3,1.6C74.6,23,73.8,23.3,73,24c4.5,2.1-0.8,5.5-1.4,1.9h0.8v-2.1h-1
		C72.8,17,81.1,17.4,82.4,24.1z"/>
</g>
<g>
	<path class="st2" d="M168.6,79.2V41.8h12.1c4.6,0,7.6,0.2,9,0.6c2.1,0.6,3.9,1.8,5.4,3.7c1.4,1.9,2.2,4.3,2.2,7.3
		c0,2.3-0.4,4.2-1.2,5.8s-1.9,2.8-3.2,3.7s-2.6,1.5-3.9,1.8c-1.8,0.4-4.4,0.5-7.8,0.5h-4.9v14.1L168.6,79.2L168.6,79.2z M176.1,48.1
		v10.6h4.1c3,0,5-0.2,6-0.6s1.8-1,2.4-1.8c0.6-0.8,0.9-1.8,0.9-2.9c0-1.4-0.4-2.5-1.2-3.4s-1.8-1.4-3-1.7c-0.9-0.2-2.7-0.3-5.4-0.3
		h-3.8V48.1z"/>
	<path class="st2" d="M201.7,65.3c0-2.4,0.6-4.7,1.8-6.9s2.8-3.9,5-5.1c2.1-1.2,4.5-1.8,7.2-1.8c4.1,0,7.5,1.3,10.1,4
		s3.9,6,3.9,10.1s-1.3,7.5-4,10.2c-2.6,2.7-6,4-10,4c-2.5,0-4.8-0.6-7.1-1.7s-4-2.8-5.1-4.9C202.3,71,201.7,68.4,201.7,65.3z
		 M209,65.7c0,2.7,0.6,4.7,1.9,6.2s2.8,2.1,4.7,2.1s3.4-0.7,4.7-2.1s1.9-3.5,1.9-6.2c0-2.7-0.6-4.7-1.9-6.1
		c-1.3-1.4-2.8-2.1-4.7-2.1s-3.4,0.7-4.7,2.1S209,63,209,65.7z"/>
	<path class="st2" d="M235.2,79.2V41.8h7.2v37.4H235.2z"/>
	<path class="st2" d="M249.7,48.4v-6.6h7.2v6.6H249.7z M249.7,79.2V52.1h7.2v27.1H249.7z"/>
	<path class="st2" d="M287.8,60.1l-7.1,1.3c-0.2-1.4-0.8-2.5-1.6-3.2c-0.8-0.7-1.9-1.1-3.3-1.1c-1.8,0-3.2,0.6-4.3,1.8
		c-1.1,1.2-1.6,3.3-1.6,6.2c0,3.2,0.5,5.5,1.6,6.8s2.5,2,4.3,2c1.4,0,2.5-0.4,3.3-1.2s1.5-2.1,1.8-4l7,1.2c-0.7,3.2-2.1,5.7-4.2,7.3
		c-2.1,1.6-4.9,2.5-8.3,2.5c-4,0-7.1-1.2-9.5-3.7s-3.5-6-3.5-10.4c0-4.5,1.2-7.9,3.5-10.4c2.4-2.5,5.6-3.7,9.6-3.7
		c3.3,0,5.9,0.7,7.9,2.1C285.6,55.1,287,57.2,287.8,60.1z"/>
	<path class="st2" d="M308.9,70.6l7.1,1.2c-0.9,2.6-2.4,4.6-4.3,6c-2,1.4-4.5,2.1-7.4,2.1c-4.7,0-8.2-1.5-10.5-4.6
		c-1.8-2.5-2.7-5.6-2.7-9.3c0-4.5,1.2-8,3.5-10.5s5.3-3.8,8.9-3.8c4,0,7.2,1.3,9.5,4s3.4,6.7,3.3,12.2h-17.9c0.1,2.1,0.6,3.8,1.7,5
		s2.5,1.8,4.1,1.8c1.1,0,2.1-0.3,2.8-0.9C308,72.9,308.5,71.9,308.9,70.6z M309.3,63.3c-0.1-2.1-0.6-3.6-1.6-4.7S305.5,57,304,57
		c-1.6,0-2.9,0.6-3.9,1.7s-1.5,2.7-1.5,4.6H309.3z"/>
	<path class="st2" d="M336.6,52.1h6.7v4c0.9-1.4,2-2.5,3.5-3.3s3.1-1.3,4.9-1.3c3.1,0,5.8,1.2,8,3.7s3.3,5.9,3.3,10.3
		c0,4.5-1.1,8-3.3,10.5c-2.2,2.5-4.9,3.8-8,3.8c-1.5,0-2.9-0.3-4.1-0.9s-2.5-1.6-3.8-3.1v13.6h-7.2V52.1z M343.7,65.2
		c0,3,0.6,5.3,1.8,6.7c1.2,1.5,2.7,2.2,4.4,2.2c1.7,0,3-0.7,4.2-2c1.1-1.3,1.7-3.5,1.7-6.6c0-2.8-0.6-4.9-1.7-6.3
		c-1.1-1.4-2.5-2.1-4.2-2.1c-1.8,0-3.2,0.7-4.4,2C344.2,60.5,343.7,62.5,343.7,65.2z"/>
	<path class="st2" d="M375.5,79.2h-7.2V52.1h6.7V56c1.1-1.8,2.2-3,3.1-3.6s1.9-0.9,3.1-0.9c1.6,0,3.2,0.5,4.7,1.4l-2.2,6.2
		c-1.2-0.8-2.3-1.2-3.4-1.2c-1,0-1.9,0.3-2.5,0.8c-0.7,0.6-1.2,1.6-1.6,3s-0.6,4.5-0.6,9.1v8.4H375.5z"/>
	<path class="st2" d="M387.3,65.3c0-2.4,0.6-4.7,1.8-6.9c1.2-2.2,2.8-3.9,5-5.1c2.1-1.2,4.5-1.8,7.2-1.8c4.1,0,7.5,1.3,10.1,4
		s3.9,6,3.9,10.1s-1.3,7.5-4,10.2c-2.6,2.7-6,4-10,4c-2.5,0-4.8-0.6-7.1-1.7c-2.3-1.1-4-2.8-5.1-4.9C387.9,71,387.3,68.4,387.3,65.3
		z M394.7,65.7c0,2.7,0.6,4.7,1.9,6.2s2.8,2.1,4.7,2.1c1.9,0,3.4-0.7,4.7-2.1c1.3-1.4,1.9-3.5,1.9-6.2c0-2.7-0.6-4.7-1.9-6.1
		c-1.3-1.4-2.8-2.1-4.7-2.1c-1.9,0-3.4,0.7-4.7,2.1S394.7,63,394.7,65.7z"/>
	<path class="st2" d="M428.3,79.2l-10.9-27.1h7.5l5.1,13.8l1.5,4.6c0.4-1.2,0.6-1.9,0.7-2.3c0.2-0.8,0.5-1.5,0.8-2.3l5.1-13.8h7.4
		l-10.8,27.1H428.3z"/>
	<path class="st2" d="M449.9,48.4v-6.6h7.2v6.6H449.9z M449.9,79.2V52.1h7.2v27.1H449.9z"/>
	<path class="st2" d="M489,79.2h-7.2V65.4c0-2.9-0.2-4.8-0.5-5.7s-0.8-1.5-1.5-2s-1.5-0.7-2.5-0.7c-1.2,0-2.4,0.3-3.3,1
		c-1,0.7-1.7,1.6-2,2.7s-0.5,3.2-0.5,6.2v12.3h-7.2V52.1h6.7v4c2.4-3.1,5.3-4.6,8.9-4.6c1.6,0,3,0.3,4.3,0.9s2.3,1.3,3,2.2
		s1.1,1.9,1.4,3s0.4,2.7,0.4,4.8L489,79.2L489,79.2z"/>
	<path class="st2" d="M519.9,60.1l-7.1,1.3c-0.2-1.4-0.8-2.5-1.6-3.2c-0.8-0.7-1.9-1.1-3.3-1.1c-1.8,0-3.2,0.6-4.3,1.8
		c-1.1,1.2-1.6,3.3-1.6,6.2c0,3.2,0.5,5.5,1.6,6.8s2.5,2,4.3,2c1.4,0,2.5-0.4,3.3-1.2c0.9-0.8,1.5-2.1,1.8-4l7,1.2
		c-0.7,3.2-2.1,5.7-4.2,7.3s-4.9,2.5-8.3,2.5c-4,0-7.1-1.2-9.5-3.7s-3.5-6-3.5-10.4c0-4.5,1.2-7.9,3.5-10.4c2.4-2.5,5.6-3.7,9.6-3.7
		c3.3,0,5.9,0.7,7.9,2.1C517.6,55.1,519,57.2,519.9,60.1z"/>
	<path class="st2" d="M525.3,48.4v-6.6h7.2v6.6H525.3z M525.3,79.2V52.1h7.2v27.1H525.3z"/>
	<path class="st2" d="M545.2,60.4l-6.5-1.2c0.7-2.6,2-4.6,3.8-5.8c1.8-1.3,4.4-1.9,8-1.9c3.2,0,5.6,0.4,7.1,1.1
		c1.6,0.8,2.7,1.7,3.3,2.9s1,3.3,1,6.4l-0.1,8.4c0,2.4,0.1,4.1,0.3,5.3s0.7,2.3,1.3,3.6h-7.1c-0.2-0.5-0.4-1.2-0.7-2.1
		c-0.1-0.4-0.2-0.7-0.3-0.8c-1.2,1.2-2.5,2.1-3.9,2.7s-2.9,0.9-4.5,0.9c-2.8,0-5-0.8-6.6-2.3s-2.4-3.4-2.4-5.7
		c0-1.5,0.4-2.9,1.1-4.1c0.7-1.2,1.8-2.1,3.1-2.8c1.3-0.6,3.2-1.2,5.7-1.7c3.3-0.6,5.7-1.2,7-1.8v-0.7c0-1.4-0.3-2.4-1-2.9
		c-0.7-0.6-2-0.9-3.8-0.9c-1.3,0-2.3,0.3-3,0.8C546.2,58.2,545.6,59.1,545.2,60.4z M554.8,66.2c-0.9,0.3-2.4,0.7-4.4,1.1
		s-3.3,0.8-3.9,1.2c-0.9,0.7-1.4,1.5-1.4,2.5s0.4,1.9,1.1,2.6s1.7,1.1,2.9,1.1c1.3,0,2.5-0.4,3.7-1.3c0.9-0.6,1.4-1.4,1.7-2.4
		c0.2-0.6,0.3-1.8,0.3-3.5L554.8,66.2L554.8,66.2z"/>
	<path class="st2" d="M568.9,79.2V41.8h7.2v37.4H568.9z"/>
	<path class="st2" d="M599,70.6l7.1,1.2c-0.9,2.6-2.4,4.6-4.3,6c-2,1.4-4.5,2.1-7.4,2.1c-4.7,0-8.2-1.5-10.5-4.6
		c-1.8-2.5-2.7-5.6-2.7-9.3c0-4.5,1.2-8,3.5-10.5s5.3-3.8,8.9-3.8c4,0,7.2,1.3,9.5,4s3.4,6.7,3.3,12.2h-17.9c0.1,2.1,0.6,3.8,1.7,5
		c1.1,1.2,2.5,1.8,4.1,1.8c1.1,0,2.1-0.3,2.8-0.9C598.1,72.9,598.6,71.9,599,70.6z M599.4,63.3c-0.1-2.1-0.6-3.6-1.6-4.7
		s-2.3-1.6-3.7-1.6c-1.6,0-2.9,0.6-3.9,1.7s-1.5,2.7-1.5,4.6H599.4z"/>
	<path class="st2" d="M651.7,79.2H645v-4c-1.1,1.5-2.4,2.7-3.9,3.5s-3,1.1-4.5,1.1c-3.1,0-5.8-1.3-8-3.8s-3.3-6-3.3-10.5
		c0-4.6,1.1-8.1,3.2-10.5c2.2-2.4,4.9-3.6,8.2-3.6c3,0,5.6,1.3,7.9,3.8V41.8h7.2v37.4H651.7z M632.6,65.1c0,2.9,0.4,5,1.2,6.3
		c1.2,1.9,2.8,2.8,4.8,2.8c1.6,0,3-0.7,4.2-2.1s1.7-3.5,1.7-6.3c0-3.1-0.6-5.3-1.7-6.7c-1.1-1.4-2.6-2.1-4.3-2.1s-3.1,0.7-4.3,2
		C633.2,60.4,632.6,62.4,632.6,65.1z"/>
	<path class="st2" d="M674.5,70.6l7.1,1.2c-0.9,2.6-2.4,4.6-4.3,6c-2,1.4-4.5,2.1-7.4,2.1c-4.7,0-8.2-1.5-10.5-4.6
		c-1.8-2.5-2.7-5.6-2.7-9.3c0-4.5,1.2-8,3.5-10.5s5.3-3.8,8.9-3.8c4,0,7.2,1.3,9.5,4s3.4,6.7,3.3,12.2H664c0.1,2.1,0.6,3.8,1.7,5
		c1.1,1.2,2.5,1.8,4.1,1.8c1.1,0,2.1-0.3,2.8-0.9C673.5,72.9,674.1,71.9,674.5,70.6z M674.9,63.3c-0.1-2.1-0.6-3.6-1.6-4.7
		S671,57,669.5,57c-1.6,0-2.9,0.6-3.9,1.7s-1.5,2.7-1.5,4.6H674.9z"/>
	<path class="st2" d="M702.3,79.2V41.8h7.2v37.4H702.3z"/>
	<path class="st2" d="M716.6,41.9h7.2V47c0,2.1-0.2,3.7-0.5,4.9c-0.4,1.2-1,2.3-2,3.2c-1,1-2.3,1.7-3.8,2.2l-1.4-3
		c1.4-0.5,2.5-1.1,3.1-2c0.6-0.8,0.9-2,1-3.4h-3.5L716.6,41.9L716.6,41.9z"/>
	<path class="st2" d="M729.8,60.7c0-3.8,0.6-7,1.7-9.6c0.8-1.9,2-3.6,3.5-5.1s3.1-2.6,4.8-3.4c2.3-1,5-1.5,8.1-1.5
		c5.5,0,9.9,1.7,13.2,5.1c3.3,3.4,5,8.2,5,14.2s-1.6,10.8-4.9,14.2c-3.3,3.4-7.7,5.1-13.2,5.1c-5.6,0-10-1.7-13.3-5.1
		C731.5,71.3,729.8,66.7,729.8,60.7z M737.6,60.5c0,4.2,1,7.4,2.9,9.6s4.4,3.3,7.4,3.3s5.5-1.1,7.4-3.3c1.9-2.2,2.9-5.4,2.9-9.7
		s-0.9-7.5-2.8-9.6s-4.4-3.2-7.5-3.2s-5.6,1.1-7.5,3.2C738.6,53,737.6,56.2,737.6,60.5z"/>
	<path class="st2" d="M796.6,79.2h-7.2V65.4c0-2.9-0.2-4.8-0.5-5.7s-0.8-1.5-1.5-2S785.9,57,785,57c-1.2,0-2.4,0.3-3.3,1
		c-1,0.7-1.7,1.6-2,2.7s-0.5,3.2-0.5,6.2v12.3H772V52.1h6.7v4c2.4-3.1,5.3-4.6,8.9-4.6c1.6,0,3,0.3,4.3,0.9s2.3,1.3,3,2.2
		s1.1,1.9,1.4,3c0.3,1.1,0.4,2.7,0.4,4.8v16.8H796.6z"/>
	<path class="st2" d="M816.2,52.1v5.7h-4.9v10.9c0,2.2,0,3.5,0.1,3.9s0.3,0.7,0.6,0.9c0.3,0.2,0.7,0.4,1.2,0.4
		c0.7,0,1.6-0.2,2.9-0.7l0.6,5.6c-1.7,0.7-3.6,1.1-5.7,1.1c-1.3,0-2.5-0.2-3.5-0.6s-1.8-1-2.3-1.7s-0.8-1.6-1-2.8
		c-0.2-0.8-0.2-2.5-0.2-5v-12h-3.3v-5.7h3.3v-5.4l7.2-4.2v9.6H816.2z"/>
	<path class="st2" d="M826.6,60.4l-6.5-1.2c0.7-2.6,2-4.6,3.8-5.8c1.8-1.3,4.4-1.9,8-1.9c3.2,0,5.6,0.4,7.1,1.1
		c1.6,0.8,2.7,1.7,3.3,2.9s1,3.3,1,6.4l-0.1,8.4c0,2.4,0.1,4.1,0.3,5.3s0.7,2.3,1.3,3.6h-7.1c-0.2-0.5-0.4-1.2-0.7-2.1
		c-0.1-0.4-0.2-0.7-0.3-0.8c-1.2,1.2-2.5,2.1-3.9,2.7s-2.9,0.9-4.5,0.9c-2.8,0-5-0.8-6.6-2.3s-2.4-3.4-2.4-5.7
		c0-1.5,0.4-2.9,1.1-4.1c0.7-1.2,1.8-2.1,3.1-2.8c1.3-0.6,3.2-1.2,5.7-1.7c3.3-0.6,5.7-1.2,7-1.8v-0.7c0-1.4-0.3-2.4-1-2.9
		c-0.7-0.6-2-0.9-3.8-0.9c-1.3,0-2.3,0.3-3,0.8C827.6,58.2,827,59.1,826.6,60.4z M836.1,66.2c-0.9,0.3-2.4,0.7-4.4,1.1
		s-3.3,0.8-3.9,1.2c-0.9,0.7-1.4,1.5-1.4,2.5s0.4,1.9,1.1,2.6s1.7,1.1,2.9,1.1c1.3,0,2.5-0.4,3.7-1.3c0.9-0.6,1.4-1.4,1.7-2.4
		c0.2-0.6,0.3-1.8,0.3-3.5L836.1,66.2L836.1,66.2z"/>
	<path class="st2" d="M857.1,79.2h-7.2V52.1h6.7V56c1.1-1.8,2.2-3,3.1-3.6c0.9-0.6,1.9-0.9,3.1-0.9c1.6,0,3.2,0.5,4.7,1.4l-2.2,6.2
		c-1.2-0.8-2.3-1.2-3.4-1.2c-1,0-1.9,0.3-2.5,0.8c-0.7,0.6-1.2,1.6-1.6,3s-0.6,4.5-0.6,9.1L857.1,79.2L857.1,79.2z"/>
	<path class="st2" d="M870.5,48.4v-6.6h7.2v6.6H870.5z M870.5,79.2V52.1h7.2v27.1H870.5z"/>
	<path class="st2" d="M883.4,65.3c0-2.4,0.6-4.7,1.8-6.9s2.8-3.9,5-5.1c2.1-1.2,4.5-1.8,7.2-1.8c4.1,0,7.5,1.3,10.1,4
		s3.9,6,3.9,10.1s-1.3,7.5-4,10.2c-2.6,2.7-6,4-10,4c-2.5,0-4.8-0.6-7.1-1.7s-4-2.8-5.1-4.9C884,71,883.4,68.4,883.4,65.3z
		 M890.7,65.7c0,2.7,0.6,4.7,1.9,6.2s2.8,2.1,4.7,2.1s3.4-0.7,4.7-2.1s1.9-3.5,1.9-6.2c0-2.7-0.6-4.7-1.9-6.1s-2.8-2.1-4.7-2.1
		s-3.4,0.7-4.7,2.1S890.7,63,890.7,65.7z"/>
</g>
</svg>
